<svg width="14" height="14" viewBox="0 0 14 14" fill="none" xmlns="http://www.w3.org/2000/svg">
<path fill-rule="evenodd" clip-rule="evenodd" d="M2.91634 0.583008V1.16634C2.91634 0.583008 2.91677 0.583008 2.9172 0.583008L2.91808 0.58301L2.91987 0.583018L2.9236 0.583051L2.93172 0.583195C2.93741 0.583328 2.94367 0.583541 2.95049 0.583861C2.96414 0.584501 2.98002 0.585565 2.99813 0.587264C3.03438 0.590662 3.07943 0.596585 3.13322 0.606671C3.2409 0.626861 3.3828 0.663574 3.55866 0.729524C3.86995 0.846259 4.2865 1.05413 4.80853 1.42324C6.25763 1.17793 7.74172 1.17793 9.19082 1.42324C9.71285 1.05413 10.1294 0.846259 10.4407 0.729524C10.6166 0.663574 10.7585 0.626861 10.8661 0.606671C10.9199 0.596585 10.965 0.590662 11.0012 0.587264C11.0193 0.585565 11.0352 0.584501 11.0489 0.583861C11.0557 0.583541 11.0619 0.583328 11.0676 0.583195L11.0757 0.583051L11.0795 0.583018L11.0813 0.58301L11.0821 0.583008C11.0826 0.583008 11.083 0.583008 11.083 1.16634V0.583008C11.352 0.583008 11.5861 0.766969 11.6498 1.02834C11.8146 1.70513 11.8329 2.40809 11.7048 3.0907C12.1052 3.74332 12.295 4.50055 12.2496 5.26823C12.2407 7.32377 10.7507 8.58833 9.11063 8.94035C9.3096 9.4407 9.388 9.9857 9.33301 10.5304V12.833C9.33301 13.1552 9.07184 13.4163 8.74967 13.4163C8.42751 13.4163 8.16634 13.1552 8.16634 12.833V10.4997C8.16634 10.4782 8.16753 10.4567 8.16991 10.4353C8.23415 9.85678 8.06828 9.27621 7.7081 8.81897C7.56984 8.64344 7.54399 8.40436 7.64154 8.20333C7.73909 8.00231 7.9429 7.87467 8.16634 7.87467C9.69828 7.87467 11.083 6.87411 11.083 5.24967C11.083 5.23725 11.0834 5.22482 11.0842 5.21242C11.1223 4.617 10.9559 4.03269 10.6086 3.5475C10.5098 3.40938 10.4761 3.23504 10.5162 3.07001C10.6077 2.69414 10.64 2.30768 10.6129 1.92436C10.3831 2.03517 10.0731 2.21542 9.68301 2.50801C9.5519 2.60634 9.38548 2.64498 9.22446 2.61449C7.75619 2.3364 6.24316 2.3364 4.77489 2.61449C4.61387 2.64498 4.44745 2.60634 4.31634 2.50801C3.92186 2.21215 3.60929 2.03115 3.37875 1.92067C3.34916 2.30205 3.38317 2.68657 3.48078 3.06076C3.52454 3.22847 3.49144 3.40696 3.39047 3.54783C3.04434 4.03075 2.87634 4.61874 2.9151 5.21162C2.91593 5.22429 2.91634 5.23698 2.91634 5.24967C2.91634 6.87411 4.30107 7.87467 5.83301 7.87467C6.05698 7.87467 6.26118 8.00291 6.35845 8.20466C6.45573 8.40641 6.4289 8.64603 6.28942 8.82127C6.10902 9.04793 5.97607 9.30545 5.89841 9.57952C5.8202 9.85557 5.79687 10.1468 5.82932 10.4342C5.83178 10.456 5.83301 10.4778 5.83301 10.4997V12.833C5.83301 13.1552 5.57184 13.4163 5.24967 13.4163C4.92751 13.4163 4.66634 13.1552 4.66634 12.833V11.3171C4.27665 11.4107 3.92021 11.4315 3.58962 11.3879C3.0357 11.3149 2.61956 11.0697 2.29424 10.8091C2.13478 10.6814 1.99302 10.5465 1.87147 10.4287C1.8511 10.409 1.83147 10.3899 1.81246 10.3715C1.71208 10.2739 1.62908 10.1933 1.54511 10.1207C1.34625 9.94877 1.24487 9.91634 1.16634 9.91634C0.844175 9.91634 0.583008 9.65517 0.583008 9.33301C0.583008 9.01084 0.844175 8.74967 1.16634 8.74967C1.67115 8.74967 2.04299 9.00891 2.30807 9.23806C2.42023 9.33501 2.53171 9.44346 2.63131 9.54035C2.64901 9.55757 2.66634 9.57443 2.68323 9.59079C2.8016 9.70546 2.91004 9.80756 3.02365 9.89857C3.24448 10.0755 3.46599 10.1949 3.74205 10.2312C3.96057 10.26 4.25244 10.2418 4.64927 10.1089C4.65543 9.82311 4.69757 9.53808 4.77593 9.26149C4.80693 9.1521 4.84351 9.0447 4.88541 8.93964C3.2467 8.58665 1.75881 7.32255 1.74972 5.26861C1.70365 4.50365 1.89407 3.74516 2.2919 3.09489C2.15425 2.40787 2.17425 1.70009 2.3519 1.01909C2.4189 0.762236 2.65089 0.583008 2.91634 0.583008Z" fill="#0A0A0A"/>
</svg>
