<svg width="14" height="14" viewBox="0 0 14 14" fill="none" xmlns="http://www.w3.org/2000/svg">
<g clip-path="url(#clip0_211_1067)">
<path d="M12.6302 0.700195H1.69631C1.17255 0.700195 0.749023 1.11369 0.749023 1.62493V12.604C0.749023 13.1152 1.17255 13.5312 1.69631 13.5312H12.6302C13.154 13.5312 13.58 13.1152 13.58 12.6065V1.62493C13.58 1.11369 13.154 0.700195 12.6302 0.700195ZM4.55572 11.6341H2.65112V5.50931H4.55572V11.6341ZM3.60342 4.6748C2.99194 4.6748 2.49825 4.18111 2.49825 3.57213C2.49825 2.96316 2.99194 2.46947 3.60342 2.46947C4.21239 2.46947 4.70608 2.96316 4.70608 3.57213C4.70608 4.1786 4.21239 4.6748 3.60342 4.6748ZM11.6829 11.6341H9.78084V8.65692C9.78084 7.94771 9.76831 7.033 8.79095 7.033C7.80106 7.033 7.6507 7.80737 7.6507 8.6068V11.6341H5.75111V5.50931H7.57552V6.34634H7.60058C7.85369 5.86517 8.47519 5.35645 9.39992 5.35645C11.3271 5.35645 11.6829 6.62451 11.6829 8.27349V11.6341V11.6341Z" fill="#0A0A0A"/>
</g>
<defs>
<clipPath id="clip0_211_1067">
<rect width="14" height="14" fill="white"/>
</clipPath>
</defs>
</svg>
