<svg width="14" height="14" viewBox="0 0 14 14" fill="none" xmlns="http://www.w3.org/2000/svg">
<path d="M1.67244 6.61983C4.98842 5.13809 7.1996 4.16116 8.30596 3.6892C11.4648 2.3416 12.1212 2.10752 12.549 2.09968C12.6431 2.09806 12.8535 2.12202 12.9898 2.23541C13.1048 2.33115 13.1365 2.46054 13.1517 2.55137C13.1668 2.64212 13.1857 2.84903 13.1707 3.01065C12.9995 4.85539 12.2588 9.33215 11.882 11.3983C11.7225 12.2726 11.4086 12.5657 11.1046 12.5944C10.4441 12.6567 9.94249 12.1467 9.30268 11.7165C8.30156 11.0435 7.73602 10.6244 6.76423 9.96762C5.64119 9.20853 6.36925 8.79138 7.00928 8.10958C7.17674 7.93117 10.0872 5.21601 10.1435 4.96966C10.1506 4.93885 10.157 4.82403 10.0906 4.76338C10.024 4.7028 9.92589 4.72354 9.85501 4.74001C9.75465 4.76338 8.15533 5.8476 5.05713 7.99262C4.60316 8.31238 4.19196 8.46814 3.82361 8.45998C3.41743 8.45095 2.6362 8.2244 2.05543 8.03079C1.34309 7.79331 0.776932 7.66772 0.826235 7.26442C0.851914 7.05433 1.13398 6.83942 1.67244 6.61983Z" fill="currentcolor"/>
</svg>
